<?xml version="1.0" encoding="UTF-8"?>
<!DOCTYPE svg PUBLIC "-//W3C//DTD SVG 1.1//EN" "http://www.w3.org/Graphics/SVG/1.1/DTD/svg11.dtd">
<svg version="1.1" xmlns="http://www.w3.org/2000/svg" xmlns:xlink="http://www.w3.org/1999/xlink" x="0" y="0" width="800" height="100" viewBox="0, 0, 800, 100">
  <defs>
    <linearGradient id="Gradient_1" gradientUnits="userSpaceOnUse" x1="-50.03" y1="82.95" x2="-50.03" y2="12.019" gradientTransform="matrix(-0.001, -1, 1, -0.001, 0, 0)">
      <stop offset="0.019" stop-color="#F2595C"/>
      <stop offset="1" stop-color="#F73769"/>
    </linearGradient>
    <linearGradient id="Gradient_2" gradientUnits="userSpaceOnUse" x1="-50.03" y1="82.95" x2="-50.03" y2="12.019" gradientTransform="matrix(-0.001, -1, 1, -0.001, 0, 0)">
      <stop offset="0.019" stop-color="#F2595C"/>
      <stop offset="1" stop-color="#F73769"/>
    </linearGradient>
    <linearGradient id="Gradient_3" gradientUnits="userSpaceOnUse" x1="-50.03" y1="82.95" x2="-50.03" y2="12.019" gradientTransform="matrix(-0.001, -1, 1, -0.001, 0, 0)">
      <stop offset="0.019" stop-color="#F2595C"/>
      <stop offset="1" stop-color="#F73769"/>
    </linearGradient>
  </defs>
  <g id="Layer_1">
    <path d="M82.996,72.216 L47.545,94.478 L12.065,72.262 L12.037,27.784 L47.488,5.522 L82.968,27.738 z" fill="#FFFFFF"/>
    <path d="M47.488,5.522 L82.968,27.739 L82.972,34.899 C81.011,33.791 78.77,33.499 76.575,33.463 C71.691,33.18 66.797,33.566 61.91,33.44 C61.158,33.42 60.407,33.378 59.656,33.333 C59.905,35.418 59.987,37.285 59.987,39.587 L59.988,63.346 C59.988,66.387 59.906,67.864 59.657,69.731 C61.436,69.645 62.636,69.601 65.78,69.601 L77.031,69.602 C79.065,69.613 81.101,69.296 82.994,68.498 L82.996,72.216 L47.545,94.478 L12.065,72.262 L12.037,27.784 L47.488,5.522 z M25.654,33.332 C25.902,35.416 25.985,37.024 25.985,39.717 L25.986,63.085 C25.986,66.299 25.903,67.602 25.655,69.6 L34.549,69.6 C34.3,67.602 34.218,65.995 34.218,63.042 L34.217,55.918 L38.437,55.918 C39.76,55.918 40.794,56.266 41.663,57.091 C42.697,58.047 43.194,59.046 44.517,62.825 C45.8,66.43 46.296,68.211 46.545,69.601 L56.224,69.601 C55.19,67.299 54.693,66.213 54.238,64.997 C52.377,60.306 51.798,58.829 51.177,57.439 C49.853,54.355 48.902,53.356 46.792,52.661 C48.819,51.966 49.688,51.488 50.722,50.489 C52.335,48.882 53.162,46.45 53.162,43.366 C53.162,37.111 49.274,33.463 42.572,33.462 L31.817,33.462 C29.005,33.462 27.474,33.418 25.654,33.332 z M40.711,40.759 C43.276,40.76 44.6,42.019 44.6,44.452 C44.6,46.927 43.111,48.491 40.67,48.491 L34.217,48.491 L34.217,40.759 L40.711,40.759 z" fill="url(#Gradient_1)"/>
    <path d="M75.665,54.356 C78.313,54.356 79.885,55.833 79.885,58.352 C79.885,60.915 78.313,62.435 75.707,62.435 L68.096,62.435 L68.096,54.356 L75.665,54.356 z" fill="url(#Gradient_2)"/>
    <path d="M75.293,40.587 C77.651,40.587 78.933,41.803 78.933,43.931 C78.933,46.06 77.568,47.406 75.376,47.406 L68.095,47.406 L68.095,40.587 L75.293,40.587 z" fill="url(#Gradient_3)"/>
    <text transform="matrix(1, 0, 0, 1, 400, 50)">
      <tspan x="-296.64" y="22" font-family="HiraKakuStd-W8" font-size="60" fill="#000000">react-boilerplate</tspan>
    </text>
  </g>
</svg>
