<?xml version="1.0" encoding="UTF-8"?>
<!DOCTYPE svg PUBLIC "-//W3C//DTD SVG 1.1//EN" "http://www.w3.org/Graphics/SVG/1.1/DTD/svg11.dtd">
<svg version="1.1" xmlns="http://www.w3.org/2000/svg" xmlns:xlink="http://www.w3.org/1999/xlink" x="0" y="0" width="1024" height="1024" viewBox="0, 0, 1024, 1024">
  <defs>
    <linearGradient id="Gradient_1" gradientUnits="userSpaceOnUse" x1="-512" y1="940.686" x2="-512" y2="83.314" gradientTransform="matrix(-0, -1, 1, -0, 0, 0)">
      <stop offset="0.019" stop-color="#F2595C"/>
      <stop offset="1" stop-color="#F73769"/>
    </linearGradient>
  </defs>
  <g id="Layer_1">
    <path d="M940.849,767.73 L512.326,1024.003 L83.477,768.276 L83.151,256.276 L511.674,0.003 L940.523,255.73 z" fill="#FFFFFF"/>
    <path d="M512,0 L940.686,256 L940.686,333.504 L884.286,333.504 L884.286,690.504 L940.686,690.504 L940.686,768 L512,1024 L83.314,768 L83.314,256 L512,0 z M591.786,333.504 L513.786,333.504 L513.786,690.504 L587.286,690.504 L587.286,451.504 L588.286,451.504 L736.786,690.504 L815.286,690.504 L815.286,333.504 L741.786,333.504 L741.786,573.004 L740.786,573.004 L591.786,333.504 z M345.286,333.504 L152.786,333.504 L152.786,690.504 L231.286,690.504 L231.286,551.004 L309.786,551.004 Q339.286,551.004 352.286,564.004 Q365.286,577.004 369.286,605.004 Q372.286,626.504 373.786,650.004 Q375.286,673.504 381.786,690.504 L460.286,690.504 Q454.786,683.004 452.036,672.254 Q449.286,661.504 448.036,649.504 Q446.786,637.504 446.286,626.004 Q445.786,614.504 445.286,606.004 Q444.286,592.504 441.536,579.004 Q438.786,565.504 432.786,554.254 Q426.786,543.004 417.286,534.754 Q407.786,526.504 393.286,522.504 L393.286,521.504 Q423.286,509.504 436.536,486.504 Q449.786,463.504 449.786,432.004 Q449.786,411.504 442.536,393.754 Q435.286,376.004 421.536,362.504 Q407.786,349.004 388.536,341.254 Q369.286,333.504 345.286,333.504 z M317.286,394.504 Q344.286,394.504 357.786,406.254 Q371.286,418.004 371.286,444.004 Q371.286,471.004 357.786,483.004 Q344.286,495.004 317.286,495.004 L231.286,495.004 L231.286,394.504 L317.286,394.504 z" fill="url(#Gradient_1)"/>
  </g>
</svg>
